<?xml version="1.0" encoding="UTF-8" standalone="no"?>
<!DOCTYPE svg PUBLIC "-//W3C//DTD SVG 1.1//EN"
 "http://www.w3.org/Graphics/SVG/1.1/DTD/svg11.dtd">
<!-- Generated by graphviz version 12.1.2 (20240928.0832)
 -->
<!-- Title: akkinoc&#45;db Pages: 1 -->
<svg width="4456pt" height="438pt"
 viewBox="0.00 0.00 4456.33 438.00" xmlns="http://www.w3.org/2000/svg" xmlns:xlink="http://www.w3.org/1999/xlink">
<g id="graph0" class="graph" transform="scale(1 1) rotate(0) translate(4 434)">
<title>akkinoc&#45;db</title>
<polygon fill="white" stroke="none" points="-4,4 -4,-434 4452.33,-434 4452.33,4 -4,4"/>
<!-- public.flyway_schema_history -->
<g id="node1" class="node">
<title>public.flyway_schema_history</title>
<polygon fill="#efefef" stroke="none" points="43.2,-351.2 43.2,-386.8 403.14,-386.8 403.14,-351.2 43.2,-351.2"/>
<polygon fill="none" stroke="black" points="43.2,-351.2 43.2,-386.8 403.14,-386.8 403.14,-351.2 43.2,-351.2"/>
<text text-anchor="start" x="50.2" y="-364.6" font-family="Arial Bold" font-size="18.00">public.flyway_schema_history</text>
<text text-anchor="start" x="271.65" y="-364.6" font-family="Arial" font-size="14.00">    </text>
<text text-anchor="start" x="302.77" y="-364.6" font-family="Arial" font-size="14.00" fill="#666666">[BASE TABLE]</text>
<polygon fill="none" stroke="black" points="43.2,-320.4 43.2,-351.2 403.14,-351.2 403.14,-320.4 43.2,-320.4"/>
<text text-anchor="start" x="50.2" y="-332.6" font-family="Arial" font-size="14.00">installed_rank </text>
<text text-anchor="start" x="140.48" y="-332.6" font-family="Arial" font-size="14.00" fill="#666666">[integer]</text>
<polygon fill="none" stroke="black" points="43.2,-289.6 43.2,-320.4 403.14,-320.4 403.14,-289.6 43.2,-289.6"/>
<text text-anchor="start" x="50.2" y="-301.8" font-family="Arial" font-size="14.00">version </text>
<text text-anchor="start" x="99.22" y="-301.8" font-family="Arial" font-size="14.00" fill="#666666">[varchar(50)]</text>
<polygon fill="none" stroke="black" points="43.2,-258.8 43.2,-289.6 403.14,-289.6 403.14,-258.8 43.2,-258.8"/>
<text text-anchor="start" x="50.2" y="-271" font-family="Arial" font-size="14.00">description </text>
<text text-anchor="start" x="121.79" y="-271" font-family="Arial" font-size="14.00" fill="#666666">[varchar(200)]</text>
<polygon fill="none" stroke="black" points="43.2,-228 43.2,-258.8 403.14,-258.8 403.14,-228 43.2,-228"/>
<text text-anchor="start" x="50.2" y="-240.2" font-family="Arial" font-size="14.00">type </text>
<text text-anchor="start" x="80.55" y="-240.2" font-family="Arial" font-size="14.00" fill="#666666">[varchar(20)]</text>
<polygon fill="none" stroke="black" points="43.2,-197.2 43.2,-228 403.14,-228 403.14,-197.2 43.2,-197.2"/>
<text text-anchor="start" x="50.2" y="-209.4" font-family="Arial" font-size="14.00">script </text>
<text text-anchor="start" x="87.54" y="-209.4" font-family="Arial" font-size="14.00" fill="#666666">[varchar(1000)]</text>
<polygon fill="none" stroke="black" points="43.2,-166.4 43.2,-197.2 403.14,-197.2 403.14,-166.4 43.2,-166.4"/>
<text text-anchor="start" x="50.2" y="-178.6" font-family="Arial" font-size="14.00">checksum </text>
<text text-anchor="start" x="117.11" y="-178.6" font-family="Arial" font-size="14.00" fill="#666666">[integer]</text>
<polygon fill="none" stroke="black" points="43.2,-135.6 43.2,-166.4 403.14,-166.4 403.14,-135.6 43.2,-135.6"/>
<text text-anchor="start" x="50.2" y="-147.8" font-family="Arial" font-size="14.00">installed_by </text>
<text text-anchor="start" x="128.03" y="-147.8" font-family="Arial" font-size="14.00" fill="#666666">[varchar(100)]</text>
<polygon fill="none" stroke="black" points="43.2,-104.8 43.2,-135.6 403.14,-135.6 403.14,-104.8 43.2,-104.8"/>
<text text-anchor="start" x="50.2" y="-117" font-family="Arial" font-size="14.00">installed_on </text>
<text text-anchor="start" x="128.81" y="-117" font-family="Arial" font-size="14.00" fill="#666666">[timestamp without time zone]</text>
<polygon fill="none" stroke="black" points="43.2,-74 43.2,-104.8 403.14,-104.8 403.14,-74 43.2,-74"/>
<text text-anchor="start" x="50.2" y="-86.2" font-family="Arial" font-size="14.00">execution_time </text>
<text text-anchor="start" x="148.25" y="-86.2" font-family="Arial" font-size="14.00" fill="#666666">[integer]</text>
<polygon fill="none" stroke="black" points="43.2,-43.2 43.2,-74 403.14,-74 403.14,-43.2 43.2,-43.2"/>
<text text-anchor="start" x="50.2" y="-55.4" font-family="Arial" font-size="14.00">success </text>
<text text-anchor="start" x="104.66" y="-55.4" font-family="Arial" font-size="14.00" fill="#666666">[boolean]</text>
</g>
<!-- schema1.flyway_schema_history -->
<g id="node2" class="node">
<title>schema1.flyway_schema_history</title>
<polygon fill="#efefef" stroke="none" points="507.21,-351.2 507.21,-386.8 885.13,-386.8 885.13,-351.2 507.21,-351.2"/>
<polygon fill="none" stroke="black" points="507.21,-351.2 507.21,-386.8 885.13,-386.8 885.13,-351.2 507.21,-351.2"/>
<text text-anchor="start" x="514.21" y="-364.6" font-family="Arial Bold" font-size="18.00">schema1.flyway_schema_history</text>
<text text-anchor="start" x="753.64" y="-364.6" font-family="Arial" font-size="14.00">    </text>
<text text-anchor="start" x="784.76" y="-364.6" font-family="Arial" font-size="14.00" fill="#666666">[BASE TABLE]</text>
<polygon fill="none" stroke="black" points="507.21,-320.4 507.21,-351.2 885.13,-351.2 885.13,-320.4 507.21,-320.4"/>
<text text-anchor="start" x="514.21" y="-332.6" font-family="Arial" font-size="14.00">installed_rank </text>
<text text-anchor="start" x="604.48" y="-332.6" font-family="Arial" font-size="14.00" fill="#666666">[integer]</text>
<polygon fill="none" stroke="black" points="507.21,-289.6 507.21,-320.4 885.13,-320.4 885.13,-289.6 507.21,-289.6"/>
<text text-anchor="start" x="514.21" y="-301.8" font-family="Arial" font-size="14.00">version </text>
<text text-anchor="start" x="563.23" y="-301.8" font-family="Arial" font-size="14.00" fill="#666666">[varchar(50)]</text>
<polygon fill="none" stroke="black" points="507.21,-258.8 507.21,-289.6 885.13,-289.6 885.13,-258.8 507.21,-258.8"/>
<text text-anchor="start" x="514.21" y="-271" font-family="Arial" font-size="14.00">description </text>
<text text-anchor="start" x="585.8" y="-271" font-family="Arial" font-size="14.00" fill="#666666">[varchar(200)]</text>
<polygon fill="none" stroke="black" points="507.21,-228 507.21,-258.8 885.13,-258.8 885.13,-228 507.21,-228"/>
<text text-anchor="start" x="514.21" y="-240.2" font-family="Arial" font-size="14.00">type </text>
<text text-anchor="start" x="544.56" y="-240.2" font-family="Arial" font-size="14.00" fill="#666666">[varchar(20)]</text>
<polygon fill="none" stroke="black" points="507.21,-197.2 507.21,-228 885.13,-228 885.13,-197.2 507.21,-197.2"/>
<text text-anchor="start" x="514.21" y="-209.4" font-family="Arial" font-size="14.00">script </text>
<text text-anchor="start" x="551.55" y="-209.4" font-family="Arial" font-size="14.00" fill="#666666">[varchar(1000)]</text>
<polygon fill="none" stroke="black" points="507.21,-166.4 507.21,-197.2 885.13,-197.2 885.13,-166.4 507.21,-166.4"/>
<text text-anchor="start" x="514.21" y="-178.6" font-family="Arial" font-size="14.00">checksum </text>
<text text-anchor="start" x="581.12" y="-178.6" font-family="Arial" font-size="14.00" fill="#666666">[integer]</text>
<polygon fill="none" stroke="black" points="507.21,-135.6 507.21,-166.4 885.13,-166.4 885.13,-135.6 507.21,-135.6"/>
<text text-anchor="start" x="514.21" y="-147.8" font-family="Arial" font-size="14.00">installed_by </text>
<text text-anchor="start" x="592.04" y="-147.8" font-family="Arial" font-size="14.00" fill="#666666">[varchar(100)]</text>
<polygon fill="none" stroke="black" points="507.21,-104.8 507.21,-135.6 885.13,-135.6 885.13,-104.8 507.21,-104.8"/>
<text text-anchor="start" x="514.21" y="-117" font-family="Arial" font-size="14.00">installed_on </text>
<text text-anchor="start" x="592.82" y="-117" font-family="Arial" font-size="14.00" fill="#666666">[timestamp without time zone]</text>
<polygon fill="none" stroke="black" points="507.21,-74 507.21,-104.8 885.13,-104.8 885.13,-74 507.21,-74"/>
<text text-anchor="start" x="514.21" y="-86.2" font-family="Arial" font-size="14.00">execution_time </text>
<text text-anchor="start" x="612.26" y="-86.2" font-family="Arial" font-size="14.00" fill="#666666">[integer]</text>
<polygon fill="none" stroke="black" points="507.21,-43.2 507.21,-74 885.13,-74 885.13,-43.2 507.21,-43.2"/>
<text text-anchor="start" x="514.21" y="-55.4" font-family="Arial" font-size="14.00">success </text>
<text text-anchor="start" x="568.67" y="-55.4" font-family="Arial" font-size="14.00" fill="#666666">[boolean]</text>
</g>
<!-- schema1.schema1_table1 -->
<g id="node3" class="node">
<title>schema1.schema1_table1</title>
<polygon fill="#efefef" stroke="none" points="989.21,-212.6 989.21,-248.2 1311.13,-248.2 1311.13,-212.6 989.21,-212.6"/>
<polygon fill="none" stroke="black" points="989.21,-212.6 989.21,-248.2 1311.13,-248.2 1311.13,-212.6 989.21,-212.6"/>
<text text-anchor="start" x="996.21" y="-226" font-family="Arial Bold" font-size="18.00">schema1.schema1_table1</text>
<text text-anchor="start" x="1179.64" y="-226" font-family="Arial" font-size="14.00">    </text>
<text text-anchor="start" x="1210.76" y="-226" font-family="Arial" font-size="14.00" fill="#666666">[BASE TABLE]</text>
<polygon fill="none" stroke="black" points="989.21,-181.8 989.21,-212.6 1311.13,-212.6 1311.13,-181.8 989.21,-181.8"/>
<text text-anchor="start" x="996.21" y="-194" font-family="Arial" font-size="14.00">id </text>
<text text-anchor="start" x="1011" y="-194" font-family="Arial" font-size="14.00" fill="#666666">[integer]</text>
</g>
<!-- schema1.schema1_table2 -->
<g id="node4" class="node">
<title>schema1.schema1_table2</title>
<polygon fill="#efefef" stroke="none" points="1415.21,-212.6 1415.21,-248.2 1737.13,-248.2 1737.13,-212.6 1415.21,-212.6"/>
<polygon fill="none" stroke="black" points="1415.21,-212.6 1415.21,-248.2 1737.13,-248.2 1737.13,-212.6 1415.21,-212.6"/>
<text text-anchor="start" x="1422.21" y="-226" font-family="Arial Bold" font-size="18.00">schema1.schema1_table2</text>
<text text-anchor="start" x="1605.64" y="-226" font-family="Arial" font-size="14.00">    </text>
<text text-anchor="start" x="1636.76" y="-226" font-family="Arial" font-size="14.00" fill="#666666">[BASE TABLE]</text>
<polygon fill="none" stroke="black" points="1415.21,-181.8 1415.21,-212.6 1737.13,-212.6 1737.13,-181.8 1415.21,-181.8"/>
<text text-anchor="start" x="1422.21" y="-194" font-family="Arial" font-size="14.00">id </text>
<text text-anchor="start" x="1437" y="-194" font-family="Arial" font-size="14.00" fill="#666666">[integer]</text>
</g>
<!-- schema2.flyway_schema_history -->
<g id="node5" class="node">
<title>schema2.flyway_schema_history</title>
<polygon fill="#efefef" stroke="none" points="1841.21,-351.2 1841.21,-386.8 2219.13,-386.8 2219.13,-351.2 1841.21,-351.2"/>
<polygon fill="none" stroke="black" points="1841.21,-351.2 1841.21,-386.8 2219.13,-386.8 2219.13,-351.2 1841.21,-351.2"/>
<text text-anchor="start" x="1848.21" y="-364.6" font-family="Arial Bold" font-size="18.00">schema2.flyway_schema_history</text>
<text text-anchor="start" x="2087.64" y="-364.6" font-family="Arial" font-size="14.00">    </text>
<text text-anchor="start" x="2118.76" y="-364.6" font-family="Arial" font-size="14.00" fill="#666666">[BASE TABLE]</text>
<polygon fill="none" stroke="black" points="1841.21,-320.4 1841.21,-351.2 2219.13,-351.2 2219.13,-320.4 1841.21,-320.4"/>
<text text-anchor="start" x="1848.21" y="-332.6" font-family="Arial" font-size="14.00">installed_rank </text>
<text text-anchor="start" x="1938.48" y="-332.6" font-family="Arial" font-size="14.00" fill="#666666">[integer]</text>
<polygon fill="none" stroke="black" points="1841.21,-289.6 1841.21,-320.4 2219.13,-320.4 2219.13,-289.6 1841.21,-289.6"/>
<text text-anchor="start" x="1848.21" y="-301.8" font-family="Arial" font-size="14.00">version </text>
<text text-anchor="start" x="1897.23" y="-301.8" font-family="Arial" font-size="14.00" fill="#666666">[varchar(50)]</text>
<polygon fill="none" stroke="black" points="1841.21,-258.8 1841.21,-289.6 2219.13,-289.6 2219.13,-258.8 1841.21,-258.8"/>
<text text-anchor="start" x="1848.21" y="-271" font-family="Arial" font-size="14.00">description </text>
<text text-anchor="start" x="1919.8" y="-271" font-family="Arial" font-size="14.00" fill="#666666">[varchar(200)]</text>
<polygon fill="none" stroke="black" points="1841.21,-228 1841.21,-258.8 2219.13,-258.8 2219.13,-228 1841.21,-228"/>
<text text-anchor="start" x="1848.21" y="-240.2" font-family="Arial" font-size="14.00">type </text>
<text text-anchor="start" x="1878.56" y="-240.2" font-family="Arial" font-size="14.00" fill="#666666">[varchar(20)]</text>
<polygon fill="none" stroke="black" points="1841.21,-197.2 1841.21,-228 2219.13,-228 2219.13,-197.2 1841.21,-197.2"/>
<text text-anchor="start" x="1848.21" y="-209.4" font-family="Arial" font-size="14.00">script </text>
<text text-anchor="start" x="1885.55" y="-209.4" font-family="Arial" font-size="14.00" fill="#666666">[varchar(1000)]</text>
<polygon fill="none" stroke="black" points="1841.21,-166.4 1841.21,-197.2 2219.13,-197.2 2219.13,-166.4 1841.21,-166.4"/>
<text text-anchor="start" x="1848.21" y="-178.6" font-family="Arial" font-size="14.00">checksum </text>
<text text-anchor="start" x="1915.12" y="-178.6" font-family="Arial" font-size="14.00" fill="#666666">[integer]</text>
<polygon fill="none" stroke="black" points="1841.21,-135.6 1841.21,-166.4 2219.13,-166.4 2219.13,-135.6 1841.21,-135.6"/>
<text text-anchor="start" x="1848.21" y="-147.8" font-family="Arial" font-size="14.00">installed_by </text>
<text text-anchor="start" x="1926.04" y="-147.8" font-family="Arial" font-size="14.00" fill="#666666">[varchar(100)]</text>
<polygon fill="none" stroke="black" points="1841.21,-104.8 1841.21,-135.6 2219.13,-135.6 2219.13,-104.8 1841.21,-104.8"/>
<text text-anchor="start" x="1848.21" y="-117" font-family="Arial" font-size="14.00">installed_on </text>
<text text-anchor="start" x="1926.82" y="-117" font-family="Arial" font-size="14.00" fill="#666666">[timestamp without time zone]</text>
<polygon fill="none" stroke="black" points="1841.21,-74 1841.21,-104.8 2219.13,-104.8 2219.13,-74 1841.21,-74"/>
<text text-anchor="start" x="1848.21" y="-86.2" font-family="Arial" font-size="14.00">execution_time </text>
<text text-anchor="start" x="1946.26" y="-86.2" font-family="Arial" font-size="14.00" fill="#666666">[integer]</text>
<polygon fill="none" stroke="black" points="1841.21,-43.2 1841.21,-74 2219.13,-74 2219.13,-43.2 1841.21,-43.2"/>
<text text-anchor="start" x="1848.21" y="-55.4" font-family="Arial" font-size="14.00">success </text>
<text text-anchor="start" x="1902.67" y="-55.4" font-family="Arial" font-size="14.00" fill="#666666">[boolean]</text>
</g>
<!-- schema2.schema2_table1 -->
<g id="node6" class="node">
<title>schema2.schema2_table1</title>
<polygon fill="#efefef" stroke="none" points="2323.21,-212.6 2323.21,-248.2 2645.13,-248.2 2645.13,-212.6 2323.21,-212.6"/>
<polygon fill="none" stroke="black" points="2323.21,-212.6 2323.21,-248.2 2645.13,-248.2 2645.13,-212.6 2323.21,-212.6"/>
<text text-anchor="start" x="2330.21" y="-226" font-family="Arial Bold" font-size="18.00">schema2.schema2_table1</text>
<text text-anchor="start" x="2513.64" y="-226" font-family="Arial" font-size="14.00">    </text>
<text text-anchor="start" x="2544.76" y="-226" font-family="Arial" font-size="14.00" fill="#666666">[BASE TABLE]</text>
<polygon fill="none" stroke="black" points="2323.21,-181.8 2323.21,-212.6 2645.13,-212.6 2645.13,-181.8 2323.21,-181.8"/>
<text text-anchor="start" x="2330.21" y="-194" font-family="Arial" font-size="14.00">id </text>
<text text-anchor="start" x="2345" y="-194" font-family="Arial" font-size="14.00" fill="#666666">[integer]</text>
</g>
<!-- schema2.schema2_table2 -->
<g id="node7" class="node">
<title>schema2.schema2_table2</title>
<polygon fill="#efefef" stroke="none" points="2749.21,-212.6 2749.21,-248.2 3071.13,-248.2 3071.13,-212.6 2749.21,-212.6"/>
<polygon fill="none" stroke="black" points="2749.21,-212.6 2749.21,-248.2 3071.13,-248.2 3071.13,-212.6 2749.21,-212.6"/>
<text text-anchor="start" x="2756.21" y="-226" font-family="Arial Bold" font-size="18.00">schema2.schema2_table2</text>
<text text-anchor="start" x="2939.64" y="-226" font-family="Arial" font-size="14.00">    </text>
<text text-anchor="start" x="2970.76" y="-226" font-family="Arial" font-size="14.00" fill="#666666">[BASE TABLE]</text>
<polygon fill="none" stroke="black" points="2749.21,-181.8 2749.21,-212.6 3071.13,-212.6 3071.13,-181.8 2749.21,-181.8"/>
<text text-anchor="start" x="2756.21" y="-194" font-family="Arial" font-size="14.00">id </text>
<text text-anchor="start" x="2771" y="-194" font-family="Arial" font-size="14.00" fill="#666666">[integer]</text>
</g>
<!-- schema3.flyway_schema_history -->
<g id="node8" class="node">
<title>schema3.flyway_schema_history</title>
<polygon fill="#efefef" stroke="none" points="3175.21,-351.2 3175.21,-386.8 3553.13,-386.8 3553.13,-351.2 3175.21,-351.2"/>
<polygon fill="none" stroke="black" points="3175.21,-351.2 3175.21,-386.8 3553.13,-386.8 3553.13,-351.2 3175.21,-351.2"/>
<text text-anchor="start" x="3182.21" y="-364.6" font-family="Arial Bold" font-size="18.00">schema3.flyway_schema_history</text>
<text text-anchor="start" x="3421.64" y="-364.6" font-family="Arial" font-size="14.00">    </text>
<text text-anchor="start" x="3452.76" y="-364.6" font-family="Arial" font-size="14.00" fill="#666666">[BASE TABLE]</text>
<polygon fill="none" stroke="black" points="3175.21,-320.4 3175.21,-351.2 3553.13,-351.2 3553.13,-320.4 3175.21,-320.4"/>
<text text-anchor="start" x="3182.21" y="-332.6" font-family="Arial" font-size="14.00">installed_rank </text>
<text text-anchor="start" x="3272.48" y="-332.6" font-family="Arial" font-size="14.00" fill="#666666">[integer]</text>
<polygon fill="none" stroke="black" points="3175.21,-289.6 3175.21,-320.4 3553.13,-320.4 3553.13,-289.6 3175.21,-289.6"/>
<text text-anchor="start" x="3182.21" y="-301.8" font-family="Arial" font-size="14.00">version </text>
<text text-anchor="start" x="3231.23" y="-301.8" font-family="Arial" font-size="14.00" fill="#666666">[varchar(50)]</text>
<polygon fill="none" stroke="black" points="3175.21,-258.8 3175.21,-289.6 3553.13,-289.6 3553.13,-258.8 3175.21,-258.8"/>
<text text-anchor="start" x="3182.21" y="-271" font-family="Arial" font-size="14.00">description </text>
<text text-anchor="start" x="3253.8" y="-271" font-family="Arial" font-size="14.00" fill="#666666">[varchar(200)]</text>
<polygon fill="none" stroke="black" points="3175.21,-228 3175.21,-258.8 3553.13,-258.8 3553.13,-228 3175.21,-228"/>
<text text-anchor="start" x="3182.21" y="-240.2" font-family="Arial" font-size="14.00">type </text>
<text text-anchor="start" x="3212.56" y="-240.2" font-family="Arial" font-size="14.00" fill="#666666">[varchar(20)]</text>
<polygon fill="none" stroke="black" points="3175.21,-197.2 3175.21,-228 3553.13,-228 3553.13,-197.2 3175.21,-197.2"/>
<text text-anchor="start" x="3182.21" y="-209.4" font-family="Arial" font-size="14.00">script </text>
<text text-anchor="start" x="3219.55" y="-209.4" font-family="Arial" font-size="14.00" fill="#666666">[varchar(1000)]</text>
<polygon fill="none" stroke="black" points="3175.21,-166.4 3175.21,-197.2 3553.13,-197.2 3553.13,-166.4 3175.21,-166.4"/>
<text text-anchor="start" x="3182.21" y="-178.6" font-family="Arial" font-size="14.00">checksum </text>
<text text-anchor="start" x="3249.12" y="-178.6" font-family="Arial" font-size="14.00" fill="#666666">[integer]</text>
<polygon fill="none" stroke="black" points="3175.21,-135.6 3175.21,-166.4 3553.13,-166.4 3553.13,-135.6 3175.21,-135.6"/>
<text text-anchor="start" x="3182.21" y="-147.8" font-family="Arial" font-size="14.00">installed_by </text>
<text text-anchor="start" x="3260.04" y="-147.8" font-family="Arial" font-size="14.00" fill="#666666">[varchar(100)]</text>
<polygon fill="none" stroke="black" points="3175.21,-104.8 3175.21,-135.6 3553.13,-135.6 3553.13,-104.8 3175.21,-104.8"/>
<text text-anchor="start" x="3182.21" y="-117" font-family="Arial" font-size="14.00">installed_on </text>
<text text-anchor="start" x="3260.82" y="-117" font-family="Arial" font-size="14.00" fill="#666666">[timestamp without time zone]</text>
<polygon fill="none" stroke="black" points="3175.21,-74 3175.21,-104.8 3553.13,-104.8 3553.13,-74 3175.21,-74"/>
<text text-anchor="start" x="3182.21" y="-86.2" font-family="Arial" font-size="14.00">execution_time </text>
<text text-anchor="start" x="3280.26" y="-86.2" font-family="Arial" font-size="14.00" fill="#666666">[integer]</text>
<polygon fill="none" stroke="black" points="3175.21,-43.2 3175.21,-74 3553.13,-74 3553.13,-43.2 3175.21,-43.2"/>
<text text-anchor="start" x="3182.21" y="-55.4" font-family="Arial" font-size="14.00">success </text>
<text text-anchor="start" x="3236.67" y="-55.4" font-family="Arial" font-size="14.00" fill="#666666">[boolean]</text>
</g>
<!-- schema3.schema3_table1 -->
<g id="node9" class="node">
<title>schema3.schema3_table1</title>
<polygon fill="#efefef" stroke="none" points="3657.21,-212.6 3657.21,-248.2 3979.13,-248.2 3979.13,-212.6 3657.21,-212.6"/>
<polygon fill="none" stroke="black" points="3657.21,-212.6 3657.21,-248.2 3979.13,-248.2 3979.13,-212.6 3657.21,-212.6"/>
<text text-anchor="start" x="3664.21" y="-226" font-family="Arial Bold" font-size="18.00">schema3.schema3_table1</text>
<text text-anchor="start" x="3847.64" y="-226" font-family="Arial" font-size="14.00">    </text>
<text text-anchor="start" x="3878.76" y="-226" font-family="Arial" font-size="14.00" fill="#666666">[BASE TABLE]</text>
<polygon fill="none" stroke="black" points="3657.21,-181.8 3657.21,-212.6 3979.13,-212.6 3979.13,-181.8 3657.21,-181.8"/>
<text text-anchor="start" x="3664.21" y="-194" font-family="Arial" font-size="14.00">id </text>
<text text-anchor="start" x="3679" y="-194" font-family="Arial" font-size="14.00" fill="#666666">[integer]</text>
</g>
<!-- schema3.schema3_table2 -->
<g id="node10" class="node">
<title>schema3.schema3_table2</title>
<polygon fill="#efefef" stroke="none" points="4083.21,-212.6 4083.21,-248.2 4405.13,-248.2 4405.13,-212.6 4083.21,-212.6"/>
<polygon fill="none" stroke="black" points="4083.21,-212.6 4083.21,-248.2 4405.13,-248.2 4405.13,-212.6 4083.21,-212.6"/>
<text text-anchor="start" x="4090.21" y="-226" font-family="Arial Bold" font-size="18.00">schema3.schema3_table2</text>
<text text-anchor="start" x="4273.64" y="-226" font-family="Arial" font-size="14.00">    </text>
<text text-anchor="start" x="4304.76" y="-226" font-family="Arial" font-size="14.00" fill="#666666">[BASE TABLE]</text>
<polygon fill="none" stroke="black" points="4083.21,-181.8 4083.21,-212.6 4405.13,-212.6 4405.13,-181.8 4083.21,-181.8"/>
<text text-anchor="start" x="4090.21" y="-194" font-family="Arial" font-size="14.00">id </text>
<text text-anchor="start" x="4105" y="-194" font-family="Arial" font-size="14.00" fill="#666666">[integer]</text>
</g>
</g>
</svg>
