<?xml version="1.0" encoding="UTF-8" standalone="no"?>
<!DOCTYPE svg PUBLIC "-//W3C//DTD SVG 1.1//EN"
 "http://www.w3.org/Graphics/SVG/1.1/DTD/svg11.dtd">
<!-- Generated by graphviz version 12.1.2 (20240928.0832)
 -->
<!-- Title: schema2.schema2_table2 Pages: 1 -->
<svg width="422pt" height="167pt"
 viewBox="0.00 0.00 422.32 166.80" xmlns="http://www.w3.org/2000/svg" xmlns:xlink="http://www.w3.org/1999/xlink">
<g id="graph0" class="graph" transform="scale(1 1) rotate(0) translate(4 162.8)">
<title>schema2.schema2_table2</title>
<polygon fill="white" stroke="none" points="-4,4 -4,-162.8 418.32,-162.8 418.32,4 -4,4"/>
<!-- schema2.schema2_table2 -->
<g id="node1" class="node">
<title>schema2.schema2_table2</title>
<polygon fill="#efefef" stroke="none" points="46.2,-77 46.2,-112.6 368.12,-112.6 368.12,-77 46.2,-77"/>
<polygon fill="none" stroke="black" points="46.2,-77 46.2,-112.6 368.12,-112.6 368.12,-77 46.2,-77"/>
<text text-anchor="start" x="53.2" y="-90.4" font-family="Arial Bold" font-size="18.00">schema2.schema2_table2</text>
<text text-anchor="start" x="236.63" y="-90.4" font-family="Arial" font-size="14.00">    </text>
<text text-anchor="start" x="267.74" y="-90.4" font-family="Arial" font-size="14.00" fill="#666666">[BASE TABLE]</text>
<polygon fill="none" stroke="black" points="46.2,-46.2 46.2,-77 368.12,-77 368.12,-46.2 46.2,-46.2"/>
<text text-anchor="start" x="53.2" y="-58.4" font-family="Arial" font-size="14.00">id </text>
<text text-anchor="start" x="67.99" y="-58.4" font-family="Arial" font-size="14.00" fill="#666666">[integer]</text>
<polygon fill="none" stroke="black" stroke-width="3" points="44.7,-44.7 44.7,-114.1 369.62,-114.1 369.62,-44.7 44.7,-44.7"/>
</g>
</g>
</svg>
